<svg xmlns="http://www.w3.org/2000/svg" xmlns:xlink="http://www.w3.org/1999/xlink" version="1.1" id="Layer_1" x="0px"
  y="0px" width="300px" viewBox="0 0 1280 220" enable-background="new 0 0 1280 220" xml:space="preserve">
  <path fill="#3A1F67" opacity="1.000000" stroke="none"
    d=" M500.000000,111.000000   C500.000000,91.675629 499.992279,72.851250 500.005127,54.026886   C500.008575,48.967918 505.899170,43.015282 510.911102,43.005932   C521.406128,42.986366 531.908630,43.246674 542.393921,42.928474   C552.266846,42.628864 559.822388,46.301579 565.167725,54.545574   C571.906250,64.938377 578.558533,75.387299 585.332764,85.756699   C590.001648,92.903450 594.875122,99.916649 599.542908,107.064110   C603.124023,112.547577 606.458801,118.191643 610.026001,123.684486   C614.536255,130.629364 619.197266,137.476105 623.739929,144.400177   C625.665833,147.335724 627.456299,150.360168 629.308350,153.344208   C629.871826,153.279449 630.435242,153.214706 630.998718,153.149963   C631.332520,151.299652 631.952881,149.449982 631.957031,147.598938   C632.019043,119.778984 631.957581,91.958725 632.044983,64.138908   C632.058350,59.890438 632.535706,55.627121 633.055115,51.402222   C633.408325,48.529549 639.308899,44.054768 642.663818,44.025925   C651.492249,43.950008 660.323120,43.909901 669.150452,44.033203   C674.639954,44.109882 678.989441,48.744812 678.995972,54.207024   C679.009338,65.368362 679.073425,76.530296 678.986633,87.690971   C678.688049,126.092155 678.333191,164.492905 678.000061,202.893814   C677.946472,209.074829 675.102539,212.086807 668.328430,214.051147   C653.828918,218.255692 639.007385,215.983826 624.447083,215.535339   C617.040344,215.307205 611.321533,208.361160 607.009644,201.866013   C597.765442,187.941315 588.568237,173.984482 579.470398,159.963898   C572.263794,148.857895 565.291199,137.600189 558.100586,126.483665   C554.643677,121.139442 550.923157,115.965767 546.229553,111.098587   C546.153015,112.819176 546.010620,114.539742 546.009766,116.260368   C545.995850,144.080444 546.116821,171.901627 545.858765,199.719315   C545.824768,203.383530 544.872192,207.998199 542.529968,210.409821   C540.231506,212.776459 535.685181,213.298615 532.005737,213.908859   C525.955994,214.912216 519.822449,215.692688 513.700928,215.908981   C506.059296,216.178970 498.936615,208.813705 499.013153,201.215286   C499.314423,171.309921 499.666656,141.405045 500.000000,111.000000  z" />
  <path fill="#3A1F67" opacity="1.000000" stroke="none"
    d=" M1097.263184,178.575607   C1097.023804,144.672562 1096.948120,111.188179 1097.045898,77.704300   C1097.069580,69.621323 1097.712280,61.541538 1097.981934,53.457340   C1098.126709,49.115925 1103.672363,42.859177 1110.268555,42.906765   C1139.919800,43.120663 1169.573486,43.000000 1199.226318,43.000000   C1215.052246,43.000000 1230.878296,42.989777 1246.704224,43.004646   C1253.800049,43.011314 1258.771362,47.952728 1259.073364,54.927494   C1259.139160,56.446716 1260.153076,57.919796 1260.695435,59.426620   C1260.855957,59.872501 1261.144287,60.523182 1260.958252,60.806126   C1257.349243,66.287750 1261.067749,75.296127 1252.959595,78.405693   C1249.001099,79.923805 1244.561646,80.860268 1240.331787,80.889908   C1210.680420,81.097733 1181.026855,81.000000 1151.374023,81.000000   C1149.741943,81.000000 1148.109863,81.000000 1146.240845,81.000000   C1146.240845,90.711761 1146.240845,100.113770 1146.240845,110.000000   C1147.913086,110.000000 1149.523071,110.000000 1151.133057,110.000000   C1172.623047,110.000000 1194.113525,109.921890 1215.602783,110.045952   C1222.352173,110.084915 1229.104492,110.576912 1235.843872,111.032494   C1240.345459,111.336777 1244.869629,116.862206 1244.980103,122.048447   C1245.075806,126.544304 1245.051270,131.044540 1244.987793,135.541565   C1244.894531,142.156357 1241.383789,145.096252 1234.929321,146.098160   C1205.557129,150.657471 1176.007080,146.213364 1146.300049,148.469818   C1146.300049,157.922394 1146.300049,167.659439 1146.300049,178.000000   C1147.943481,178.000000 1149.704224,178.000000 1151.464966,178.000000   C1182.283936,178.000000 1213.105347,177.780945 1243.920410,178.132660   C1253.241333,178.239059 1257.641357,180.910965 1258.686279,189.792938   C1259.380859,195.697464 1258.451050,201.897827 1257.530029,207.854706   C1256.785278,212.670654 1252.004761,213.901138 1248.229126,214.813690   C1243.668579,215.915985 1238.781494,215.943726 1234.034546,215.955399   C1200.050659,216.038925 1166.066040,216.065567 1132.082275,215.954285   C1123.499634,215.926178 1114.916504,215.382065 1106.338257,214.977203   C1102.555298,214.798660 1098.105957,209.306427 1098.006470,204.855743   C1097.814209,196.235779 1097.660645,187.614929 1097.263184,178.575607  z" />
  <path fill="#3A1F67" opacity="1.000000" stroke="none"
    d=" M710.015015,179.886108   C703.228088,167.440521 699.755066,154.511414 700.023926,140.667221   C700.239075,129.586823 699.956360,118.428940 701.216187,107.457184   C702.306213,97.964363 705.628845,88.988007 709.599854,79.999039   C716.215088,65.024574 727.733093,56.161865 741.450439,49.413471   C747.056580,46.655430 753.583191,45.781986 759.673889,43.992630   C779.145447,38.272224 799.086304,41.594707 818.800598,41.217442   C829.585205,41.011059 839.959595,44.873405 849.761169,49.405327   C859.276245,53.804775 867.872559,59.532795 874.630371,67.870476   C880.112976,74.634834 884.241882,81.845024 886.083740,90.447395   C887.347168,96.348091 890.151794,102.002579 890.812378,107.929298   C891.851929,117.256790 891.768066,126.718536 891.977783,136.127487   C892.353394,152.982361 888.162476,169.105057 879.603333,183.188629   C871.079773,197.213608 858.139526,207.237274 841.865662,211.996033   C836.054077,213.695435 830.311951,215.815765 824.383179,216.882568   C817.659119,218.092468 810.765198,218.833679 803.938110,218.886902   C792.863403,218.973251 781.604919,219.454773 770.747803,217.730713   C755.367126,215.288300 740.020325,211.028183 727.772583,200.849304   C720.903015,195.140152 715.883423,187.205124 710.015015,179.886108  M833.984436,90.832848   C831.992493,88.888824 830.222107,86.628639 827.972778,85.051720   C812.560364,74.246788 795.292236,73.378754 777.793152,77.257690   C760.884705,81.005684 748.367371,97.103561 748.149902,114.897331   C748.001709,127.021820 746.566528,139.260803 749.916992,151.316055   C751.996765,158.799637 755.678650,165.289536 760.757324,170.900589   C766.910950,177.699142 775.047913,180.935608 784.063293,182.029465   C797.108215,183.612259 809.756531,183.591293 822.000732,177.191086   C832.396667,171.757034 837.428589,162.836044 840.957825,152.564468   C844.597717,141.970566 844.379578,130.903076 843.923889,119.921623   C843.615662,112.493149 842.157593,105.173279 838.732971,98.460205   C837.488037,96.019875 835.668274,93.872780 833.984436,90.832848  z" />
  <path fill="#3A1F67" opacity="1.000000" stroke="none"
    d=" M239.000000,195.897125   C236.970078,182.536285 243.684555,173.225403 251.864243,164.698547   C263.813934,152.241638 275.893890,139.905640 288.101105,127.700951   C300.304749,115.499870 312.736176,103.526703 325.060333,91.446060   C327.231445,89.317848 329.344574,87.130402 331.523102,85.009949   C334.214325,82.390465 333.279816,80.666107 330.131439,79.705215   C328.613464,79.241920 326.960724,79.030991 325.368500,79.028435   C300.202850,78.987968 275.037109,79.002441 249.871384,78.998497   C242.383896,78.997322 239.008698,75.624390 239.000885,68.154961   C238.996170,63.655132 238.999695,59.155300 239.000061,54.655468   C239.000748,46.104019 242.080215,43.000282 250.568161,43.000198   C293.899841,42.999763 337.231598,42.970131 380.563171,43.043991   C385.137299,43.051788 389.870972,43.071968 394.220276,44.241013   C396.612701,44.884056 399.623688,47.633213 400.179443,49.953976   C402.863647,61.163166 403.280457,72.584671 396.857941,82.746979   C393.866547,87.480247 389.188293,91.157379 385.222565,95.262917   C377.151245,103.618759 369.246704,112.149124 360.905090,120.227196   C348.400665,132.336517 335.496246,144.031876 322.924194,156.072708   C315.630798,163.057922 308.654877,170.374619 301.081329,178.000000   C303.236542,178.000000 304.962311,178.000000 306.688049,178.000000   C334.853638,178.000000 363.019257,177.998444 391.184845,178.001266   C397.036102,178.001846 401.994446,183.029099 401.999268,188.954514   C402.003052,193.621002 401.734100,198.306671 402.068909,202.949005   C402.465973,208.453903 397.410126,213.076996 392.224945,214.011703   C369.017334,218.195282 345.517914,216.649277 322.342224,215.424362   C306.493164,214.586685 290.661346,214.725784 274.839111,214.013657   C265.756989,213.604889 256.667297,213.366318 247.583832,212.984543   C243.565308,212.815643 239.555435,207.110153 239.019791,200.873413   C238.891922,199.384674 239.000290,197.875610 239.000000,195.897125  z" />
  <defs>
    <linearGradient id="grad2LogoColor" x1="0%" y1="0%" x2="100%" y2="0">
      <stop offset="0%" stop-color="rgb(241, 78, 44)" stop-opacity="1" />
      <stop offset="70%" stop-color="rgb(238, 32, 54)" stop-opacity="1" />
    </linearGradient>
  </defs>
  <g fill="url(#grad2LogoColor)">
    <path opacity="1.000000" stroke="none"
      d=" M212.792786,72.000916   C213.963959,72.299759 214.708252,72.867149 215.438766,72.849930   C218.880005,72.768776 222.008102,74.577751 221.655655,77.551392   C221.379349,79.882759 218.432632,82.749710 215.988235,83.828079   C203.874161,89.172256 191.192688,93.320724 179.378296,99.225403   C169.720566,104.052216 160.668488,110.305763 151.945450,116.737236   C139.066879,126.232597 126.406708,136.082672 114.252838,146.482117   C106.003502,153.540649 98.675529,161.697922 91.126770,169.547760   C81.622963,179.430603 72.568314,189.757584 62.832054,199.400406   C56.330711,205.839340 41.806686,204.910568 33.883400,199.615906   C21.516691,191.351974 19.348412,175.412567 25.001974,162.862274   C29.715117,152.399612 34.155113,141.810028 39.045952,131.432129   C46.897820,114.771225 55.106457,98.278687 62.996838,81.635590   C67.174065,72.824615 70.832054,63.767056 75.027031,54.965019   C79.433342,45.719532 84.623802,36.828178 88.665154,27.435104   C91.440392,20.984812 94.407730,15.025821 99.940971,10.494114   C104.722450,6.578094 109.865929,3.648669 116.202423,4.054271   C122.345192,4.447474 128.689697,4.471500 134.532150,6.121549   C143.279587,8.592035 147.899353,16.120104 151.845474,23.691462   C154.342789,28.482971 155.961609,33.723824 158.252243,38.633541   C161.839554,46.322536 160.603973,49.542263 153.226959,53.410164   C145.154663,57.642609 137.177917,62.117477 129.485825,67.000648   C118.245148,74.136551 109.209991,83.737732 100.994598,94.123741   C99.063896,96.564568 97.235878,99.086617 95.360619,101.571304   C95.656761,102.032463 95.952896,102.493629 96.249031,102.954796   C99.926109,100.710693 103.597031,98.456421 107.281479,96.224495   C116.644867,90.552414 125.533249,83.742615 135.520569,79.556412   C144.956848,75.601151 155.708542,74.918884 165.594437,71.866722   C177.340622,68.240219 189.185059,70.757286 200.958023,70.135384   C204.715225,69.936913 208.556656,71.333412 212.792786,72.000916  z" />
  </g>
  <path fill="#3A1F67" opacity="1.000000" stroke="none"
    d=" M898.000916,43.523312   C908.945557,43.130436 919.601501,42.944481 930.254700,43.046993   C936.328735,43.105442 938.576660,48.462368 940.873840,52.533653   C945.732849,61.144917 949.675110,70.273750 953.984436,79.194633   C956.980713,85.397461 960.127136,91.534393 962.915100,97.829773   C968.376770,110.162529 973.606445,122.597847 978.991455,134.964874   C981.198425,140.033188 983.559021,145.034576 986.524780,151.549362   C989.440979,145.014496 991.713257,139.857788 994.038574,134.725113   C999.096680,123.560448 1004.162842,112.399323 1009.261047,101.252930   C1014.815063,89.110153 1020.227600,76.897560 1026.058105,64.888382   C1029.248047,58.318230 1032.924561,51.941402 1036.934692,45.840870   C1038.008057,44.207939 1041.091919,43.188251 1043.288940,43.124298   C1053.108887,42.838444 1062.947021,42.805107 1072.768555,43.063351   C1080.268311,43.260548 1083.751831,49.795753 1081.332397,55.172058   C1076.610718,65.664238 1071.789185,76.111786 1066.963623,86.556885   C1063.693237,93.635818 1060.389160,100.699951 1057.022461,107.733475   C1051.794556,118.654869 1046.402100,129.498611 1041.278687,140.468353   C1038.936401,145.483658 1037.228271,150.792603 1034.953491,155.842697   C1029.734985,167.428284 1024.410767,178.967560 1018.995789,190.462738   C1016.496277,195.768921 1013.607544,200.890533 1011.034546,206.163788   C1008.391479,211.580566 1003.943787,214.327881 998.168701,214.958694   C993.281006,215.492569 988.324707,215.433762 983.450012,216.045303   C970.711609,217.643356 963.084351,211.191895 958.071838,200.396301   C953.497314,190.544113 948.920532,180.692932 944.374451,170.827606   C938.160583,157.342712 931.913269,143.872665 925.793152,130.345200   C918.744568,114.765503 911.842102,99.119766 904.829834,83.523544   C901.615112,76.373444 898.139160,69.337006 895.077637,62.123394   C893.537537,58.494766 891.721619,54.566963 891.795288,50.809086   C891.848694,48.089294 893.818542,44.541027 898.000916,43.523312  z" />
  <path fill="#3A1F67" opacity="1.000000" stroke="none"
    d=" M421.000000,158.070618   C421.333313,122.855499 421.656372,88.130089 422.010498,53.404991   C422.067200,47.842426 427.156799,43.004623 432.817566,43.001163   C440.478241,42.996479 448.141022,43.114597 455.799042,42.972431   C466.571350,42.772446 469.663452,48.012886 469.818176,56.751049   C470.556946,98.463112 470.777466,140.185974 470.901031,181.905838   C470.924164,189.716919 470.150452,197.621048 468.743103,205.298676   C468.218842,208.158859 465.318848,211.877106 462.657227,212.820663   C452.859558,216.293930 442.694946,218.265594 432.426727,214.127579   C422.421936,210.095734 422.127167,209.490845 421.967834,198.786911   C421.768188,185.376251 421.333344,171.969101 421.000000,158.070618  z" />
  <defs>
    <linearGradient id="grad1LogoColor" x1="100%" y1="0%" x2="0" y2="0">
      <stop offset="0%" stop-color="rgb(46, 25, 88)" stop-opacity="1" />
      <stop offset="50%" stop-color="rgb(88, 38, 145)" stop-opacity="1" />
      <stop offset="100%" stop-color="rgb(169, 48, 158)" stop-opacity="1" />
    </linearGradient>
  </defs>
  <g fill="url(#grad1LogoColor)">
    <path opacity="1.000000" stroke="none"
      d=" M193.749542,115.336830   C197.310791,122.897614 200.617905,130.157761 204.003723,137.381027   C207.619156,145.094131 211.163422,152.845932 215.005371,160.446075   C219.224945,168.793198 221.184158,177.442673 218.939102,186.640869   C216.625351,196.120377 205.996094,204.231842 196.045471,203.913849   C189.985138,203.720154 183.999451,205.005173 177.888779,201.328110   C172.661118,198.182434 169.558121,192.371414 171.458145,187.251266   C174.617935,178.736511 178.449249,170.471024 181.993546,162.098770   C182.356598,161.241257 182.691132,160.371658 183.673218,157.931747   C178.797867,159.557724 174.884399,160.314423 171.514450,162.098083   C163.904999,166.125610 155.671127,169.641373 149.310959,175.213913   C138.106613,185.030716 128.115265,196.231628 117.610817,206.847839   C115.239388,209.244492 113.141899,212.084930 110.364449,213.849182   C108.358292,215.123520 104.907211,216.003326 103.091881,215.089584   C101.696243,214.387085 100.664101,210.056946 101.496498,208.299942   C107.375618,195.890305 113.336761,183.477478 120.122498,171.549683   C129.335526,155.355225 142.218109,141.943024 155.591751,129.220291   C163.203812,121.978706 172.174011,116.131973 180.731613,109.931770   C184.658844,107.086388 190.361023,109.585449 193.749542,115.336830  z" />
  </g>

</svg>
